<?xml version="1.0" standalone="no"?>
<!DOCTYPE svg PUBLIC "-//W3C//DTD SVG 20010904//EN"
 "http://www.w3.org/TR/2001/REC-SVG-20010904/DTD/svg10.dtd">
<svg version="1.0" xmlns="http://www.w3.org/2000/svg"
 width="1024.000000pt" height="1024.000000pt" viewBox="0 0 1024.000000 1024.000000"
 preserveAspectRatio="xMidYMid meet">
<metadata>
Created by potrace 1.14, written by Peter Selinger 2001-2017
</metadata>
<g transform="translate(0.000000,1024.000000) scale(0.100000,-0.100000)"
fill="#000000" stroke="none">
<path d="M0 5120 l0 -5120 5120 0 5120 0 0 5120 0 5120 -5120 0 -5120 0 0
-5120z m5661 3940 c409 -21 740 -92 929 -197 90 -50 182 -144 203 -207 28 -83
23 -116 -30 -195 -110 -161 -337 -393 -451 -460 -183 -107 -425 -170 -727
-188 l-120 -7 90 -8 c494 -41 948 -202 1194 -424 225 -203 254 -483 68 -669
-141 -141 -308 -216 -816 -370 -340 -102 -509 -143 -611 -146 -33 -1 -32 -2
10 -9 25 -4 99 -13 165 -20 468 -47 914 -182 1420 -429 344 -169 522 -329 571
-515 35 -130 4 -206 -130 -313 -39 -32 -128 -113 -198 -179 -244 -232 -495
-381 -839 -499 -282 -96 -689 -171 -966 -176 -37 -1 27 -8 142 -15 723 -45
1289 -144 1711 -299 149 -55 368 -165 467 -236 126 -90 237 -210 287 -312 41
-84 70 -191 70 -262 -1 -122 -138 -318 -534 -762 -199 -224 -278 -302 -403
-396 -339 -258 -869 -444 -1453 -511 -475 -55 -1076 -47 -1545 20 -791 112
-1472 399 -1822 767 -125 132 -217 293 -249 434 -22 100 -15 271 15 363 61
191 239 377 502 526 204 116 442 208 899 348 151 47 349 108 440 136 342 106
623 167 874 190 66 6 121 12 123 13 1 2 -55 8 -125 15 -281 27 -644 103 -912
192 -513 170 -847 404 -990 695 -71 146 -86 252 -50 367 129 419 946 770 1975
849 83 6 152 13 154 15 2 2 -23 4 -56 4 -97 0 -366 28 -528 55 -579 97 -911
292 -942 554 -7 62 18 118 104 233 98 129 323 376 397 436 259 209 621 319
1111 339 l160 7 -135 17 c-380 48 -682 170 -847 342 -84 87 -115 152 -121 250
-4 71 -2 82 27 141 71 146 215 231 591 349 345 109 431 131 565 146 102 12
130 12 336 1z"/>
</g>
</svg>
